<svg version="1.1" id="Layer_1" xmlns="http://www.w3.org/2000/svg" xmlns:xlink="http://www.w3.org/1999/xlink" x="0px" y="0px"
	 width="100%" viewBox="0 0 334 319" enable-background="new 0 0 334 319" xml:space="preserve">
<path fill="#FFFFFF" opacity="1.000000" stroke="none" 
	d="
M195.000000,320.000000 
	C130.000031,320.000000 65.500069,320.000000 1.000078,320.000000 
	C1.000052,213.666763 1.000052,107.333519 1.000026,1.000206 
	C112.333183,1.000138 223.666367,1.000138 334.999634,1.000069 
	C334.999756,107.333130 334.999756,213.666260 334.999878,319.999695 
	C288.500000,320.000000 242.000000,320.000000 195.000000,320.000000 
M172.985687,292.010132 
	C172.985687,292.010132 173.023102,292.010223 172.912094,291.472809 
	C172.596695,291.321716 172.281281,291.170624 171.994019,291.012878 
	C171.994019,291.012878 171.988525,291.041382 171.827011,290.454071 
	C171.309875,290.188171 170.792740,289.922272 170.349167,289.811127 
	C170.349167,289.811127 170.300812,289.644073 170.130264,289.017059 
	C160.795761,279.936615 151.461258,270.856140 141.869217,261.166290 
	C136.811264,255.359650 131.753311,249.553024 126.227600,243.191895 
	C121.524246,236.779266 116.820892,230.366623 111.927521,223.270554 
	C108.391258,217.468338 104.854988,211.666122 101.129257,205.163223 
	C98.789520,200.375244 96.449791,195.587265 94.047523,190.065994 
	C92.576782,185.964386 91.106049,181.862793 89.474785,176.961563 
	C88.396286,172.621201 87.317787,168.280823 86.268822,163.044220 
	C85.824516,158.029022 85.380211,153.013824 85.107086,147.155609 
	C85.679222,141.768433 86.251350,136.381241 87.079346,130.240662 
	C89.836456,124.536781 92.593567,118.832901 95.915535,112.804512 
	C101.447006,107.053444 108.250282,103.930252 116.128159,103.043991 
	C125.094177,102.035332 133.656967,103.899887 142.619492,107.021004 
	C146.400009,109.053452 150.180511,111.085907 154.271027,113.716217 
	C165.263611,121.113953 174.721664,130.148544 183.017258,140.605865 
	C180.557770,130.048935 176.493088,120.239067 170.940994,110.286697 
	C166.655548,103.802841 162.370117,97.318985 157.870041,90.204399 
	C152.323029,84.631203 146.776001,79.058006 140.821899,72.990517 
	C123.759499,59.110577 104.093643,54.043854 82.491661,56.281044 
	C66.698143,57.916691 51.917118,62.513584 39.013699,73.551567 
	C34.524803,79.484352 30.035904,85.417137 25.032099,91.835114 
	C23.043434,98.224113 21.054770,104.613121 18.753603,111.786133 
	C18.873398,122.191223 18.993193,132.596313 19.010176,143.829498 
	C20.333790,149.221786 21.657404,154.614075 22.940777,160.794571 
	C25.226404,166.655838 27.512032,172.517090 29.868355,179.098480 
	C32.849815,184.513351 35.831280,189.928207 38.909725,196.013977 
	C42.455704,200.722092 46.001678,205.430222 49.786983,210.802994 
	C55.118191,216.228943 60.449394,221.654907 66.094780,227.684952 
	C73.414505,233.734863 80.734230,239.784760 88.454521,246.380646 
	C96.237373,251.619431 104.020226,256.858215 112.173630,262.675568 
	C132.012360,275.541809 153.020828,286.178314 175.355331,295.923584 
	C174.809448,294.561615 174.499222,293.787598 173.991669,292.461975 
	C173.654999,292.298981 173.318344,292.135986 172.985687,292.010132 
M190.366180,280.994537 
	C190.205261,281.301666 190.044342,281.608795 189.306458,282.282013 
	C188.989609,283.125214 188.672775,283.968414 187.843506,286.175323 
	C190.407730,284.598114 191.980194,283.832581 193.321350,282.773956 
	C203.850464,274.463135 214.502747,266.296143 224.782272,257.685120 
	C233.461151,250.414886 241.691849,242.609650 250.735031,234.792801 
	C259.492920,224.862427 268.250793,214.932053 277.598480,204.684631 
	C283.416534,195.820023 289.234589,186.955414 295.603119,177.664062 
	C297.458038,173.544952 299.312988,169.425842 301.707458,164.808212 
	C303.136810,160.539429 304.566193,156.270645 306.421906,151.385727 
	C307.372955,147.386459 308.324005,143.387192 309.725952,138.716965 
	C310.436005,133.479767 311.146057,128.242569 312.043854,122.177856 
	C312.081299,117.438652 312.118744,112.699448 312.253174,107.040398 
	C311.414673,100.025421 310.576141,93.010437 309.737030,85.247223 
	C308.171783,80.807632 306.606567,76.368042 304.991180,71.210266 
	C302.713531,67.450699 300.435883,63.691135 298.043457,59.229889 
	C294.605774,55.383015 291.168060,51.536144 287.419128,47.026600 
	C281.610748,43.724861 275.802368,40.423122 269.336151,36.735844 
	C256.137695,32.669254 242.720856,31.053467 228.963669,33.052479 
	C211.191681,35.634872 195.729050,42.787460 182.736969,56.402473 
	C179.817673,60.922932 176.898376,65.443390 173.435623,70.458649 
	C172.763535,72.481979 171.911758,74.465309 171.450912,76.535652 
	C169.596252,84.868027 174.202133,90.209541 182.656143,89.165359 
	C186.481094,88.692932 190.186569,87.253342 194.810577,86.193893 
	C196.444763,85.896606 198.078735,85.598137 199.713165,85.302200 
	C214.989075,82.536270 228.937256,84.559807 238.191895,98.433784 
	C242.352417,104.670967 244.706482,112.113152 247.867889,119.857201 
	C248.664413,124.900696 249.460953,129.944183 250.130417,135.913544 
	C250.166748,140.605011 250.203079,145.296463 250.037613,150.822891 
	C248.790558,158.546005 247.543503,166.269119 246.008209,174.722977 
	C244.955139,178.802780 243.902069,182.882599 242.350266,187.467194 
	C240.532303,192.635361 238.714340,197.803513 236.371506,203.416046 
	C234.586731,207.612350 232.801971,211.808655 230.506699,216.458267 
	C224.602188,227.268692 218.697693,238.079102 212.240540,249.265411 
	C205.822266,258.844696 199.403976,268.424011 193.004440,278.001251 
	C193.004440,278.001251 193.000824,277.982452 192.454971,278.217590 
	C192.202347,278.742218 191.949722,279.266876 191.823929,279.866486 
	C191.823929,279.866486 191.759445,279.734009 191.260513,279.928864 
	C191.113998,280.245972 190.967484,280.563110 190.926941,280.931824 
	C190.926941,280.931824 190.874023,280.826538 190.366180,280.994537 
z"/>
<path fill="#F42F7A" opacity="1.000000" stroke="none" 
	d="
M25.547009,91.349922 
	C30.035904,85.417137 34.524803,79.484352 39.558563,73.793205 
	C41.514683,74.356216 42.925453,74.955612 44.337265,74.958069 
	C75.163979,75.011787 105.990875,75.019997 136.817444,74.934944 
	C138.289291,74.930885 139.758530,73.989624 141.228989,73.484810 
	C146.776001,79.058006 152.323029,84.631203 157.746445,90.844765 
	C155.580200,91.990074 153.543579,92.900940 151.493881,92.931351 
	C141.345123,93.081963 131.192368,92.947670 121.042419,93.051147 
	C119.336967,93.068520 117.638374,93.759766 115.518097,94.114906 
	C104.064262,91.708633 93.024818,90.559669 81.589180,93.814880 
	C79.416618,93.433655 77.625587,93.034721 75.833214,93.028671 
	C60.867661,92.978157 45.901390,93.055511 30.936766,92.927147 
	C29.135801,92.911713 27.343386,91.899918 25.547009,91.349922 
z"/>
<path fill="#117494" opacity="1.000000" stroke="none" 
	d="
M247.880219,119.008560 
	C244.706482,112.113152 242.352417,104.670967 238.191895,98.433784 
	C228.937256,84.559807 214.989075,82.536270 199.713165,85.302200 
	C198.078735,85.598137 196.444763,85.896606 194.495728,85.884857 
	C196.313873,84.021225 198.336090,82.279121 200.597855,80.942360 
	C215.614777,72.067009 231.031723,65.175507 249.171051,72.281204 
	C253.584473,76.366745 257.788666,80.189766 262.117188,84.340118 
	C264.114532,88.507301 265.987549,92.347153 267.880371,96.588394 
	C269.006775,102.985695 270.113373,108.981606 271.150757,115.424599 
	C271.013672,118.569519 270.945801,121.267365 270.478760,123.974709 
	C269.101501,123.840782 268.107483,123.765915 267.147858,123.542870 
	C260.721222,122.049057 254.301910,120.523689 247.880219,119.008560 
z"/>
<path fill="#2FA9CD" opacity="1.000000" stroke="none" 
	d="
M248.961823,72.018677 
	C231.031723,65.175507 215.614777,72.067009 200.597855,80.942360 
	C198.336090,82.279121 196.313873,84.021225 194.063568,85.914169 
	C190.186569,87.253342 186.481094,88.692932 182.656143,89.165359 
	C174.202133,90.209541 169.596252,84.868027 171.450912,76.535652 
	C171.911758,74.465309 172.763535,72.481979 173.957184,70.496727 
	C175.595322,70.549606 176.753052,70.766670 177.822433,70.549271 
	C198.336243,66.379112 218.847824,62.197159 239.342621,57.934757 
	C255.483978,54.577766 271.601990,51.108604 287.730377,47.689270 
	C291.168060,51.536144 294.605774,55.383015 297.742371,59.733612 
	C287.449402,62.492237 277.434937,64.652885 267.473846,67.036537 
	C261.261505,68.523125 255.129745,70.346458 248.961823,72.018677 
z"/>
<path fill="#FB347D" opacity="1.000000" stroke="none" 
	d="
M141.025452,73.237663 
	C139.758530,73.989624 138.289291,74.930885 136.817444,74.934944 
	C105.990875,75.019997 75.163979,75.011787 44.337265,74.958069 
	C42.925453,74.955612 41.514683,74.356216 39.863060,73.619972 
	C51.917118,62.513584 66.698143,57.916691 82.491661,56.281044 
	C104.093643,54.043854 123.759499,59.110577 141.025452,73.237663 
z"/>
<path fill="#E62776" opacity="1.000000" stroke="none" 
	d="
M19.112989,143.001404 
	C18.993193,132.596313 18.873398,122.191223 19.373867,111.393433 
	C29.773272,111.000496 39.554211,110.888977 49.330803,111.046692 
	C54.258049,111.126183 59.177418,111.693901 64.073685,112.430641 
	C63.377705,115.879128 62.708385,118.937828 61.862099,122.375008 
	C61.464317,127.500618 61.243500,132.247742 61.006973,137.422958 
	C60.981598,139.562424 60.971931,141.273804 60.495991,142.988953 
	C46.390804,142.995621 32.751896,142.998520 19.112989,143.001404 
z"/>
<path fill="#2CA2C6" opacity="1.000000" stroke="none" 
	d="
M287.574768,47.357933 
	C271.601990,51.108604 255.483978,54.577766 239.342621,57.934757 
	C218.847824,62.197159 198.336243,66.379112 177.822433,70.549271 
	C176.753052,70.766670 175.595322,70.549606 174.228912,70.249329 
	C176.898376,65.443390 179.817673,60.922932 183.430954,56.199585 
	C185.289276,55.965775 186.487961,56.105404 187.612930,55.878918 
	C213.868805,50.592815 240.122864,45.296768 266.348389,39.863216 
	C267.695129,39.584187 268.784698,38.063805 269.993988,37.121384 
	C275.802368,40.423122 281.610748,43.724861 287.574768,47.357933 
z"/>
<path fill="#A90767" opacity="1.000000" stroke="none" 
	d="
M62.039066,121.996521 
	C62.708385,118.937828 63.377705,115.879128 64.329437,112.212875 
	C67.937279,103.306709 74.273621,97.973267 81.970085,93.979286 
	C93.024818,90.559669 104.064262,91.708633 115.773994,94.362747 
	C118.793037,95.424004 121.262001,95.961525 123.458687,97.049042 
	C129.726227,100.151878 135.882980,103.478447 142.083328,106.717003 
	C133.656967,103.899887 125.094177,102.035332 116.128159,103.043991 
	C108.250282,103.930252 101.447006,107.053444 95.206352,112.932251 
	C92.254013,113.572586 89.984001,113.990112 87.772438,114.614601 
	C79.184570,117.039543 70.615273,119.530273 62.039066,121.996521 
z"/>
<path fill="#38BCE2" opacity="1.000000" stroke="none" 
	d="
M271.219940,114.977509 
	C270.113373,108.981606 269.006775,102.985695 268.068481,96.247795 
	C269.827911,94.717323 271.340668,93.545288 273.022675,93.201729 
	C285.241852,90.705925 297.495148,88.377090 309.737610,85.995453 
	C310.576141,93.010437 311.414673,100.025421 311.766602,107.512230 
	C308.215912,108.478493 305.144989,108.934471 302.088928,109.474358 
	C291.796417,111.292648 281.509186,113.140785 271.219940,114.977509 
z"/>
<path fill="#CB1970" opacity="1.000000" stroke="none" 
	d="
M38.812744,195.343079 
	C35.831280,189.928207 32.849815,184.513351 30.103062,178.382767 
	C32.104282,177.444702 33.869503,177.042831 35.637520,177.030151 
	C44.716675,176.965027 53.798733,177.102432 62.874264,176.909637 
	C64.596237,176.873062 66.293343,175.666107 68.277512,175.200012 
	C73.037941,183.532822 73.042320,183.545746 81.773857,180.586334 
	C84.410622,179.692642 87.015717,178.705521 89.635315,177.761185 
	C91.106049,181.862793 92.576782,185.964386 93.872482,190.740173 
	C89.131531,193.609573 84.565613,195.804779 79.692032,197.849823 
	C76.156639,193.825211 72.053574,192.681122 67.056641,192.909378 
	C59.469589,193.255951 51.850044,192.851929 44.255733,193.107056 
	C42.418438,193.168777 40.625874,194.562088 38.812744,195.343079 
z"/>
<path fill="#ED2B79" opacity="1.000000" stroke="none" 
	d="
M81.589180,93.814880 
	C74.273621,97.973267 67.937279,103.306709 64.356110,111.823090 
	C59.177418,111.693901 54.258049,111.126183 49.330803,111.046692 
	C39.554211,110.888977 29.773272,111.000496 19.530117,111.001434 
	C21.054770,104.613121 23.043434,98.224113 25.289555,91.592514 
	C27.343386,91.899918 29.135801,92.911713 30.936766,92.927147 
	C45.901390,93.055511 60.867661,92.978157 75.833214,93.028671 
	C77.625587,93.034721 79.416618,93.433655 81.589180,93.814880 
z"/>
<path fill="#2C9EC1" opacity="1.000000" stroke="none" 
	d="
M269.665070,36.928612 
	C268.784698,38.063805 267.695129,39.584187 266.348389,39.863216 
	C240.122864,45.296768 213.868805,50.592815 187.612930,55.878918 
	C186.487961,56.105404 185.289276,55.965775 183.714569,55.997257 
	C195.729050,42.787460 211.191681,35.634872 228.963669,33.052479 
	C242.720856,31.053467 256.137695,32.669254 269.665070,36.928612 
z"/>
<path fill="#2599BC" opacity="1.000000" stroke="none" 
	d="
M295.052643,178.090820 
	C289.234589,186.955414 283.416534,195.820023 276.877014,204.844666 
	C274.691284,205.198486 273.219299,205.346878 271.764008,205.593536 
	C263.173645,207.049484 254.587173,208.528275 246.018616,209.679108 
	C246.357971,208.571716 246.678070,207.784592 247.275024,206.796982 
	C250.037415,201.397598 252.522964,196.198715 255.284103,190.797729 
	C257.488983,185.442276 261.212433,182.861618 266.655090,181.975128 
	C274.147064,180.754868 281.533936,178.899200 289.012512,177.580475 
	C290.936066,177.241287 293.034546,177.893845 295.052643,178.090820 
z"/>
<path fill="#D92073" opacity="1.000000" stroke="none" 
	d="
M19.061583,143.415451 
	C32.751896,142.998520 46.390804,142.995621 60.523018,143.395340 
	C61.678986,147.198029 62.341648,150.598099 63.000732,154.398010 
	C62.999157,155.863800 63.001160,156.929764 62.762970,158.298828 
	C60.468773,159.067947 58.419361,159.911957 56.360008,159.936951 
	C45.235039,160.072052 34.107601,160.004227 22.981018,160.006363 
	C21.657404,154.614075 20.333790,149.221786 19.061583,143.415451 
z"/>
<path fill="#1D8AAC" opacity="1.000000" stroke="none" 
	d="
M245.999390,209.999390 
	C254.587173,208.528275 263.173645,207.049484 271.764008,205.593536 
	C273.219299,205.346878 274.691284,205.198486 276.582123,205.003189 
	C268.250793,214.932053 259.492920,224.862427 249.968475,234.905762 
	C242.134598,236.012482 235.067307,237.006241 228.122330,237.681320 
	C232.162537,231.241577 236.080414,225.120514 240.273285,218.804306 
	C242.365295,215.739227 244.182343,212.869308 245.999390,209.999390 
z"/>
<path fill="#D21D71" opacity="1.000000" stroke="none" 
	d="
M22.960896,160.400467 
	C34.107601,160.004227 45.235039,160.072052 56.360008,159.936951 
	C58.419361,159.911957 60.468773,159.067947 63.040176,158.544861 
	C64.703621,161.992874 65.849663,165.497971 67.002335,169.387329 
	C67.339951,171.514130 67.670937,173.256638 68.001923,174.999146 
	C66.293343,175.666107 64.596237,176.873062 62.874264,176.909637 
	C53.798733,177.102432 44.716675,176.965027 35.637520,177.030151 
	C33.869503,177.042831 32.104282,177.444702 30.067715,178.022705 
	C27.512032,172.517090 25.226404,166.655838 22.960896,160.400467 
z"/>
<path fill="#32AFD5" opacity="1.000000" stroke="none" 
	d="
M249.171051,72.281204 
	C255.129745,70.346458 261.261505,68.523125 267.473846,67.036537 
	C277.434937,64.652885 287.449402,62.492237 297.799774,60.084454 
	C300.435883,63.691135 302.713531,67.450699 304.833038,71.905807 
	C304.000854,73.040894 303.377441,73.737022 302.645203,73.881416 
	C292.002686,75.980011 281.310699,77.844200 270.714020,80.148300 
	C267.670746,80.810020 264.892578,82.690895 261.992859,84.012787 
	C257.788666,80.189766 253.584473,76.366745 249.171051,72.281204 
z"/>
<path fill="#2C9EC1" opacity="1.000000" stroke="none" 
	d="
M295.327881,177.877441 
	C293.034546,177.893845 290.936066,177.241287 289.012512,177.580475 
	C281.533936,178.899200 274.147064,180.754868 266.655090,181.975128 
	C261.212433,182.861618 257.488983,185.442276 254.959351,190.635925 
	C250.522339,189.438263 246.685669,188.200333 242.848999,186.962402 
	C243.902069,182.882599 244.955139,178.802780 246.538467,174.359192 
	C247.880203,174.094437 248.723846,174.083206 249.498306,174.309113 
	C260.176971,177.424286 260.174652,177.432266 265.176208,168.327789 
	C266.837097,168.965485 268.418152,169.773727 269.790039,169.506866 
	C278.133270,167.884018 286.401611,165.867661 294.760071,164.338364 
	C296.769684,163.970657 299.025391,164.947983 301.167938,165.306747 
	C299.312988,169.425842 297.458038,173.544952 295.327881,177.877441 
z"/>
<path fill="#C5156E" opacity="1.000000" stroke="none" 
	d="
M38.861237,195.678528 
	C40.625874,194.562088 42.418438,193.168777 44.255733,193.107056 
	C51.850044,192.851929 59.469589,193.255951 67.056641,192.909378 
	C72.053574,192.681122 76.156639,193.825211 79.728676,198.200378 
	C82.382492,202.467010 84.692009,206.232895 86.532776,209.999146 
	C73.891899,210.045792 61.719776,210.092072 49.547653,210.138336 
	C46.001678,205.430222 42.455704,200.722092 38.861237,195.678528 
z"/>
<path fill="#35B6DC" opacity="1.000000" stroke="none" 
	d="
M271.150757,115.424591 
	C281.509186,113.140785 291.796417,111.292648 302.088928,109.474358 
	C305.144989,108.934471 308.215912,108.478493 311.718109,107.972153 
	C312.118744,112.699448 312.081299,117.438652 311.519043,122.589745 
	C307.402191,123.474091 303.783112,123.798424 300.223236,124.447456 
	C290.498566,126.220436 280.798828,128.130325 271.061279,129.557495 
	C270.981506,127.407753 270.929718,125.686478 270.877930,123.965202 
	C270.945801,121.267365 271.013672,118.569519 271.150757,115.424591 
z"/>
<path fill="#32AFD5" opacity="1.000000" stroke="none" 
	d="
M271.089233,129.985962 
	C280.798828,128.130325 290.498566,126.220436 300.223236,124.447456 
	C303.783112,123.798424 307.402191,123.474091 311.425171,123.003494 
	C311.146057,128.242569 310.436005,133.479767 309.262268,138.727173 
	C306.278503,138.960938 303.726379,139.002396 301.243988,139.439880 
	C291.118805,141.224319 281.014984,143.129913 270.925232,144.562622 
	C270.945648,142.417938 270.944153,140.701508 270.963806,138.536133 
	C271.019684,135.386780 271.054474,132.686371 271.089233,129.985962 
z"/>
<path fill="#35B6DC" opacity="1.000000" stroke="none" 
	d="
M262.117188,84.340118 
	C264.892578,82.690895 267.670746,80.810020 270.714020,80.148300 
	C281.310699,77.844200 292.002686,75.980011 302.645203,73.881416 
	C303.377441,73.737022 304.000854,73.040894 304.858093,72.264900 
	C306.606567,76.368042 308.171783,80.807632 309.737335,85.621338 
	C297.495148,88.377090 285.241852,90.705925 273.022675,93.201729 
	C271.340668,93.545288 269.827911,94.717323 268.048706,95.846405 
	C265.987549,92.347153 264.114532,88.507301 262.117188,84.340118 
z"/>
<path fill="#ED2B79" opacity="1.000000" stroke="none" 
	d="
M142.351410,106.869003 
	C135.882980,103.478447 129.726227,100.151878 123.458687,97.049042 
	C121.262001,95.961525 118.793037,95.424004 116.192505,94.387497 
	C117.638374,93.759766 119.336967,93.068520 121.042419,93.051147 
	C131.192368,92.947670 141.345123,93.081963 151.493881,92.931351 
	C153.543579,92.900940 155.580200,91.990074 157.853760,91.160126 
	C162.370117,97.318985 166.655548,103.802841 170.513580,110.641937 
	C165.960281,110.998528 161.823822,110.834892 157.714752,111.098396 
	C156.425644,111.181068 155.210205,112.412659 153.961029,113.118362 
	C150.180511,111.085907 146.400009,109.053452 142.351410,106.869003 
z"/>
<path fill="#1982A3" opacity="1.000000" stroke="none" 
	d="
M228.000000,238.000000 
	C235.067307,237.006241 242.134598,236.012482 249.661407,235.029968 
	C241.691849,242.609650 233.461151,250.414886 224.782272,257.685120 
	C214.502747,266.296143 203.850464,274.463135 193.321350,282.773956 
	C191.980194,283.832581 190.407730,284.598114 187.843506,286.175323 
	C188.672775,283.968414 188.989609,283.125214 189.850403,282.016724 
	C190.554230,281.443115 190.714127,281.134827 190.874023,280.826538 
	C190.874023,280.826538 190.926941,280.931824 191.142548,280.826324 
	C191.491913,280.391876 191.625687,280.062958 191.759460,279.734009 
	C191.759445,279.734009 191.823929,279.866486 192.074829,279.766815 
	C192.550751,279.105591 192.775787,278.544006 193.000824,277.982452 
	C193.000824,277.982452 193.004440,278.001251 193.342529,277.980408 
	C201.473648,269.026978 209.266678,260.094421 217.346741,250.979080 
	C221.089188,246.530869 224.544601,242.265442 228.000000,238.000000 
z"/>
<path fill="#BE126C" opacity="1.000000" stroke="none" 
	d="
M49.667320,210.470673 
	C61.719776,210.092072 73.891899,210.045792 86.776367,210.153442 
	C87.990639,210.873276 88.492561,211.439178 89.132523,212.317017 
	C92.511322,217.086990 95.752090,221.545013 98.524658,226.002228 
	C96.060806,226.000946 94.062683,225.935257 92.069962,226.011230 
	C83.305992,226.345459 74.543579,226.720581 65.780602,227.080856 
	C60.449394,221.654907 55.118191,216.228943 49.667320,210.470673 
z"/>
<path fill="#B60E6A" opacity="1.000000" stroke="none" 
	d="
M65.937691,227.382904 
	C74.543579,226.720581 83.305992,226.345459 92.069962,226.011230 
	C94.062683,225.935257 96.060806,226.000946 98.786171,226.181549 
	C100.672638,227.582520 101.829384,228.803360 103.137360,230.321594 
	C106.541290,234.701141 109.793983,238.783295 112.767380,243.185532 
	C106.085747,243.670410 99.676613,243.715149 93.285515,244.077850 
	C91.514137,244.178375 89.796341,245.223129 88.053955,245.834671 
	C80.734230,239.784760 73.414505,233.734863 65.937691,227.382904 
z"/>
<path fill="#2FA9CD" opacity="1.000000" stroke="none" 
	d="
M270.903290,144.990875 
	C281.014984,143.129913 291.118805,141.224319 301.243988,139.439880 
	C303.726379,139.002396 306.278503,138.960938 309.036804,139.062653 
	C308.324005,143.387192 307.372955,147.386459 305.767883,151.693237 
	C302.980103,152.203522 300.823547,152.272507 298.716431,152.631729 
	C288.473663,154.377960 278.244171,156.201920 268.009766,157.597748 
	C268.003387,156.128754 267.997253,155.060349 268.140747,153.649109 
	C269.161377,150.534470 270.032349,147.762665 270.903290,144.990875 
z"/>
<path fill="#A90767" opacity="1.000000" stroke="none" 
	d="
M174.189011,293.013611 
	C174.499222,293.787598 174.809448,294.561615 175.355331,295.923584 
	C153.020828,286.178314 132.012360,275.541809 112.385590,262.214600 
	C119.093254,261.491333 125.588959,261.229004 132.373749,261.116577 
	C134.763702,262.868073 136.864548,264.469666 139.128693,266.360901 
	C148.174591,273.739258 157.026199,280.867554 165.977203,287.868835 
	C167.158539,288.792816 168.847153,289.068268 170.300812,289.644073 
	C170.300812,289.644073 170.349167,289.811127 170.307648,290.068451 
	C170.840256,290.564331 171.414398,290.802856 171.988525,291.041382 
	C171.988525,291.041382 171.994019,291.012878 172.037582,291.283051 
	C172.395142,291.705536 172.709122,291.857880 173.023102,292.010223 
	C173.023102,292.010223 172.985687,292.010132 173.076721,292.267090 
	C173.508179,292.687225 173.848587,292.850433 174.189011,293.013611 
z"/>
<path fill="#AE0A68" opacity="1.000000" stroke="none" 
	d="
M132.084656,260.966675 
	C125.588959,261.229004 119.093254,261.491333 112.200317,261.925323 
	C104.020226,256.858215 96.237373,251.619431 88.254242,246.107666 
	C89.796341,245.223129 91.514137,244.178375 93.285515,244.077850 
	C99.676613,243.715149 106.085747,243.670410 113.095551,243.258743 
	C115.449051,244.368637 117.195061,245.725372 119.100571,247.370895 
	C123.534920,252.095352 127.809792,256.531036 132.084656,260.966675 
z"/>
<path fill="#AE0A68" opacity="1.000000" stroke="none" 
	d="
M61.862099,122.375008 
	C70.615273,119.530273 79.184570,117.039543 87.772438,114.614601 
	C89.984001,113.990112 92.254013,113.572586 94.923920,113.094498 
	C92.593567,118.832901 89.836456,124.536781 86.536888,130.618637 
	C83.251579,131.530655 80.480682,131.951462 77.771713,132.622345 
	C72.171242,134.009338 66.603752,135.529495 61.022686,136.994873 
	C61.243500,132.247742 61.464317,127.500618 61.862099,122.375008 
z"/>
<path fill="#2CA2C6" opacity="1.000000" stroke="none" 
	d="
M268.009979,157.998337 
	C278.244171,156.201920 288.473663,154.377960 298.716431,152.631729 
	C300.823547,152.272507 302.980103,152.203522 305.554749,152.001312 
	C304.566193,156.270645 303.136810,160.539429 301.437683,165.057480 
	C299.025391,164.947983 296.769684,163.970657 294.760071,164.338364 
	C286.401611,165.867661 278.133270,167.884018 269.790039,169.506866 
	C268.418152,169.773727 266.837097,168.965485 265.220398,167.945190 
	C266.062073,164.156967 267.036011,161.077652 268.009979,157.998337 
z"/>
<path fill="#2599BC" opacity="1.000000" stroke="none" 
	d="
M268.009766,157.597748 
	C267.036011,161.077652 266.062073,164.156967 265.043884,167.618866 
	C260.174652,177.432266 260.176971,177.424286 249.498306,174.309113 
	C248.723846,174.083206 247.880203,174.094437 246.682587,173.993835 
	C247.543503,166.269119 248.790558,158.546005 250.532959,150.408905 
	C256.682556,151.327255 262.336853,152.659607 267.991119,153.991959 
	C267.997253,155.060349 268.003387,156.128754 268.009766,157.597748 
z"/>
<path fill="#B60E6A" opacity="1.000000" stroke="none" 
	d="
M61.006977,137.422974 
	C66.603752,135.529495 72.171242,134.009338 77.771713,132.622345 
	C80.480682,131.951462 83.251579,131.530655 86.408951,130.995331 
	C86.251350,136.381241 85.679222,141.768433 84.627930,147.585785 
	C77.100616,150.010040 70.052460,152.004105 63.004311,153.998169 
	C62.341648,150.598099 61.678986,147.198029 60.989296,143.391571 
	C60.971931,141.273804 60.981598,139.562424 61.006977,137.422974 
z"/>
<path fill="#BE126C" opacity="1.000000" stroke="none" 
	d="
M63.000732,154.398010 
	C70.052460,152.004105 77.100616,150.010040 84.542328,148.007294 
	C85.380211,153.013824 85.824516,158.029022 85.845673,163.513641 
	C79.280251,165.656403 73.137978,167.329727 66.995705,169.003052 
	C65.849663,165.497971 64.703621,161.992874 63.280373,158.241760 
	C63.001160,156.929764 62.999157,155.863800 63.000732,154.398010 
z"/>
<path fill="#1982A3" opacity="1.000000" stroke="none" 
	d="
M271.061279,129.557495 
	C271.054474,132.686371 271.019684,135.386780 270.548279,138.541412 
	C268.489685,138.733154 266.855011,138.531754 265.248169,138.196869 
	C260.245605,137.154327 255.253586,136.061203 250.257477,134.987686 
	C249.460953,129.944183 248.664413,124.900696 247.874054,119.432884 
	C254.301910,120.523689 260.721222,122.049057 267.147858,123.542870 
	C268.107483,123.765915 269.101501,123.840782 270.478760,123.974709 
	C270.929718,125.686478 270.981506,127.407753 271.061279,129.557495 
z"/>
<path fill="#38BCE2" opacity="1.000000" stroke="none" 
	d="
M228.122345,237.681320 
	C224.544601,242.265442 221.089188,246.530869 217.149628,250.683777 
	C215.374710,250.010696 214.083954,249.450104 212.793198,248.889526 
	C218.697693,238.079102 224.602188,227.268692 231.140747,216.236282 
	C234.515976,217.009338 237.257126,218.004395 239.998291,218.999451 
	C236.080414,225.120514 232.162537,231.241577 228.122345,237.681320 
z"/>
<path fill="#1D8AAC" opacity="1.000000" stroke="none" 
	d="
M250.193939,135.450623 
	C255.253586,136.061203 260.245605,137.154327 265.248169,138.196869 
	C266.855011,138.531754 268.489685,138.733154 270.527161,138.990356 
	C270.944153,140.701508 270.945648,142.417938 270.925232,144.562622 
	C270.032349,147.762665 269.161377,150.534470 268.140747,153.649109 
	C262.336853,152.659607 256.682556,151.327255 250.633850,149.991425 
	C250.203079,145.296463 250.166748,140.605011 250.193939,135.450623 
z"/>
<path fill="#E62776" opacity="1.000000" stroke="none" 
	d="
M154.116028,113.417297 
	C155.210205,112.412659 156.425644,111.181068 157.714752,111.098396 
	C161.823822,110.834892 165.960281,110.998528 170.555603,110.994995 
	C176.493088,120.239067 180.557770,130.048935 183.017258,140.605865 
	C174.721664,130.148544 165.263611,121.113953 154.116028,113.417297 
z"/>
<path fill="#C5156E" opacity="1.000000" stroke="none" 
	d="
M67.002335,169.387329 
	C73.137978,167.329727 79.280251,165.656403 85.830902,163.961761 
	C87.317787,168.280823 88.396286,172.621201 89.555054,177.361374 
	C87.015717,178.705521 84.410622,179.692642 81.773857,180.586334 
	C73.042320,183.545746 73.037941,183.532822 68.277512,175.199997 
	C67.670937,173.256638 67.339951,171.514130 67.002335,169.387329 
z"/>
<path fill="#D92073" opacity="1.000000" stroke="none" 
	d="
M102.986130,230.024216 
	C101.829384,228.803360 100.672638,227.582520 99.254379,226.182358 
	C95.752090,221.545013 92.511322,217.086990 89.290680,212.001938 
	C93.313446,209.537918 97.316086,207.700912 101.318726,205.863907 
	C104.854988,211.666122 108.391258,217.468338 111.678391,223.757980 
	C108.769768,226.397980 103.350845,224.518875 102.986130,230.024216 
z"/>
<path fill="#E62776" opacity="1.000000" stroke="none" 
	d="
M103.137360,230.321594 
	C103.350845,224.518875 108.769768,226.397980 111.773399,224.099701 
	C116.820892,230.366623 121.524246,236.779266 126.050430,243.545441 
	C123.562538,244.960022 121.251808,246.021072 118.941078,247.082123 
	C117.195061,245.725372 115.449051,244.368637 113.374855,242.938675 
	C109.793983,238.783295 106.541290,234.701141 103.137360,230.321594 
z"/>
<path fill="#D21D71" opacity="1.000000" stroke="none" 
	d="
M101.223991,205.513565 
	C97.316086,207.700912 93.313446,209.537918 89.152649,211.690002 
	C88.492561,211.439178 87.990639,210.873276 87.245125,210.153076 
	C84.692009,206.232895 82.382492,202.467010 80.036331,198.350555 
	C84.565613,195.804779 89.131531,193.609573 93.903755,191.106827 
	C96.449791,195.587265 98.789520,200.375244 101.223991,205.513565 
z"/>
<path fill="#2FA9CD" opacity="1.000000" stroke="none" 
	d="
M242.599640,187.214813 
	C246.685669,188.200333 250.522339,189.438263 254.683777,190.838013 
	C252.522964,196.198715 250.037415,201.397598 247.107086,206.478729 
	C243.406982,205.231232 240.151688,204.101456 236.896378,202.971680 
	C238.714340,197.803513 240.532303,192.635361 242.599640,187.214813 
z"/>
<path fill="#ED2B79" opacity="1.000000" stroke="none" 
	d="
M119.100571,247.370895 
	C121.251808,246.021072 123.562538,244.960022 126.284317,243.822678 
	C131.753311,249.553024 136.811264,255.359650 141.813263,261.766052 
	C140.826675,263.600952 139.896027,264.836121 138.965393,266.071289 
	C136.864548,264.469666 134.763702,262.868073 132.373749,261.116577 
	C127.809792,256.531036 123.534920,252.095352 119.100571,247.370895 
z"/>
<path fill="#32AFD5" opacity="1.000000" stroke="none" 
	d="
M236.633942,203.193863 
	C240.151688,204.101456 243.406982,205.231232 246.830231,206.679230 
	C246.678070,207.784592 246.357971,208.571716 246.018616,209.679108 
	C244.182343,212.869308 242.365295,215.739227 240.273270,218.804306 
	C237.257126,218.004395 234.515976,217.009338 231.395996,216.009628 
	C232.801971,211.808655 234.586731,207.612350 236.633942,203.193863 
z"/>
<path fill="#FB347D" opacity="1.000000" stroke="none" 
	d="
M139.128677,266.360901 
	C139.896027,264.836121 140.826675,263.600952 141.942032,262.070740 
	C151.461258,270.856140 160.795761,279.936615 170.215546,289.330566 
	C168.847153,289.068268 167.158539,288.792816 165.977203,287.868835 
	C157.026199,280.867554 148.174591,273.739258 139.128677,266.360901 
z"/>
<path fill="#2FA9CD" opacity="1.000000" stroke="none" 
	d="
M212.516876,249.077469 
	C214.083954,249.450104 215.374710,250.010696 216.862579,250.866577 
	C209.266678,260.094421 201.473648,269.026978 193.333160,277.981415 
	C199.403976,268.424011 205.822266,258.844696 212.516876,249.077469 
z"/>
<path fill="#2FA9CD" opacity="1.000000" stroke="none" 
	d="
M192.727905,278.100037 
	C192.775787,278.544006 192.550751,279.105591 192.011414,279.729309 
	C191.949722,279.266876 192.202347,278.742218 192.727905,278.100037 
z"/>
<path fill="#FB347D" opacity="1.000000" stroke="none" 
	d="
M171.907776,290.747742 
	C171.414398,290.802856 170.840256,290.564331 170.270859,289.991089 
	C170.792740,289.922272 171.309875,290.188171 171.907776,290.747742 
z"/>
<path fill="#2FA9CD" opacity="1.000000" stroke="none" 
	d="
M191.509979,279.831421 
	C191.625687,280.062958 191.491913,280.391876 191.089554,280.800537 
	C190.967484,280.563110 191.113998,280.245972 191.509979,279.831421 
z"/>
<path fill="#2FA9CD" opacity="1.000000" stroke="none" 
	d="
M190.620102,280.910522 
	C190.714127,281.134827 190.554230,281.443115 190.138885,281.833679 
	C190.044342,281.608795 190.205261,281.301666 190.620102,280.910522 
z"/>
<path fill="#FB347D" opacity="1.000000" stroke="none" 
	d="
M172.967590,291.741516 
	C172.709122,291.857880 172.395142,291.705536 172.023499,291.286377 
	C172.281281,291.170624 172.596695,291.321716 172.967590,291.741516 
z"/>
<path fill="#FB347D" opacity="1.000000" stroke="none" 
	d="
M174.090332,292.737793 
	C173.848587,292.850433 173.508179,292.687225 173.074722,292.248505 
	C173.318344,292.135986 173.654999,292.298981 174.090332,292.737793 
z"/>
</svg>